#!OML:ASF Y:\EmotionMaleHayes\Project 1\Capture day 1\Session 1\Male1.ASF
:FULLY-SPECIFIED
:DEGREES
324
root 27.4207 16.4071 -4.4447 1.92044 -6.00205 -371.342
lowerback 29.0556 8.45449 -0.152184
upperback 10.7611 10.9983 5.75584
thorax -4.88991 5.19211 2.82196
lowerneck -11.3025 14.6401 18.3752
upperneck 15.2139 20.3235 -18.2245
head 10.6187 9.18666 -6.23555
rclavicle -2.62396e-014 5.56597e-015
rhumerus -48.0673 -48.9476 0.4854
rradius 36.6998
rwrist -40.8948
rhand -27.1871 -49.6572
rfingers 7.12502
rthumb -0.600803 -79.6361
lclavicle -2.62396e-014 5.56597e-015
lhumerus -13.7862 37.1514 -7.65392
lradius 47.2363
lwrist 41.9939
lhand -43.6616 -24.4
lfingers 7.12502
lthumb -16.4954 4.91874
rfemur -42.7997 -19.1114 -1.662
rtibia 73.5463
rfoot -13.228 -14.536
rtoes 12.0428
lfemur -19.1455 10.3163 -27.3227
ltibia 37.5361
lfoot -30.0094 19.0083
ltoes 31.1318
325
root 27.6867 16.5567 -4.32913 2.063 -6.52224 -370.974
lowerback 28.4302 7.82503 -0.736564
upperback 10.5359 10.0501 5.58089
thorax -4.85233 4.73644 3.32259
lowerneck -10.7057 15.3538 18.242
upperneck 15.4251 21.5051 -18.2604
head 10.813 9.74368 -5.99951
rclavicle 5.08889e-014 3.18055e-015
rhumerus -46.5974 -50.9829 3.05754
rradius 36.566
rwrist -40.1839
rhand -26.6368 -48.7845
rfingers 7.12502
rthumb -0.0692551 -78.7643
lclavicle 5.08889e-014 3.18055e-015
lhumerus -11.2993 35.0925 -6.13622
lradius 47.6347
lwrist 41.9612
lhand -42.5271 -22.3544
lfingers 7.12502
lthumb -15.4029 7.05177
rfemur -45.2165 -19.1512 1.01865
rtibia 72.5256
rfoot -12.9221 -14.2704
rtoes 8.87094
lfemur -16.9312 9.66226 -28.5129
ltibia 33.722
lfoot -27.5485 19.8108
ltoes 29.2174
326
root 27.9615 16.7095 -4.20591 2.25015 -7.02052 -370.491
lowerback 27.54 7.23615 -1.43759
upperback 10.4231 9.12662 5.43374
thorax -4.56755 4.29103 3.9356
lowerneck -10.6756 16.0237 18.0725
upperneck 15.7855 22.5218 -18.1045
head 11.0989 10.1955 -5.68686
rclavicle 1.90833e-014 -5.36719e-014
rhumerus -44.5222 -51.3883 3.55354
rradius 37.5527
rwrist -41.1875
rhand -25.8008 -47.5554
rfingers 7.12502
rthumb 0.738145 -77.5339
lclavicle 1.90833e-014 -5.36719e-014
lhumerus -9.27877 32.6271 -4.57945
lradius 48.244
lwrist 41.8014
lhand -41.0954 -19.7761
lfingers 7.12502
lthumb -14.0236 9.73082
rfemur -47.3063 -19.0163 3.61376
rtibia 71.2313
rfoot -12.1845 -13.4092
rtoes 5.68975
lfemur -14.6409 8.65208 -29.7768
ltibia 29.8429
lfoot -25.645 19.5129
ltoes 30.1173
327
root 28.2482 16.8594 -4.07707 2.45112 -7.30442 -370.073
lowerback 26.7924 6.58521 -1.05249
upperback 10.1155 8.35899 4.68724
thorax -4.32292 3.94273 3.20481
lowerneck -10.6314 16.4098 18.6245
upperneck 16.0196 22.9662 -17.8942
head 11.3037 10.4322 -5.58375
rclavicle 4.53229e-014 -2.54444e-014
rhumerus -43.951 -52.0782 5.24286
rradius 37.8035
rwrist -41.4461
rhand -26.4702 -47.553
rfingers 7.12502
rthumb 0.091598 -77.5328
lclavicle 4.53229e-014 -2.54444e-014
lhumerus -4.67139 31.3961 -2.01404
lradius 47.6999
lwrist 41.0876
lhand -37.7589 -19.8355
lfingers 7.12502
lthumb -10.8067 9.86646
rfemur -48.9887 -19.0114 6.20009
rtibia 69.8071
rfoot -11.2943 -11.8102
rtoes 5.88097
lfemur -12.4273 7.48529 -31.0909
ltibia 26.0103
lfoot -23.1459 19.6448
ltoes 29.639
328
root 28.5284 17.0082 -3.94158 2.67967 -7.55994 -369.782
lowerback 25.75 5.87741 -0.722333
upperback 9.8971 7.50335 3.98321
thorax -3.86844 3.55107 2.59459
lowerneck -10.509 16.7359 19.3018
upperneck 16.0546 23.3293 -17.8743
head 11.4531 10.6343 -5.58501
rclavicle 2.18663e-014 -1.05356e-014
rhumerus -42.5132 -52.7936 6.09011
rradius 37.8724
rwrist -41.1353
rhand -25.3611 -46.745
rfingers 7.12502
rthumb 1.16278 -76.7215
lclavicle 2.18663e-014 -1.05356e-014
lhumerus -1.68593 28.5582 -0.323557
lradius 48.0659
lwrist 40.6517
lhand -35.4094 -19.1953
lfingers 7.12502
lthumb -8.53989 10.6121
rfemur -50.3614 -18.8424 8.95169
rtibia 68.2784
rfoot -10.2999 -9.92565
rtoes 6.0165
lfemur -10.4149 7.41509 -32.0671
ltibia 22.5071
lfoot -19.8921 19.0455
ltoes 28.6326
329
root 28.799 17.1576 -3.80136 2.88533 -7.90023 -369.459
lowerback 24.5179 5.19109 -1.11757
upperback 9.7374 6.52853 3.60216
thorax -3.38768 3.08211 2.76832
lowerneck -10.5961 17.0572 19.4244
upperneck 16.3089 23.6188 -17.213
head 11.5307 10.8044 -5.2876
rclavicle 3.36754e-014 -2.3997e-014
rhumerus -38.9345 -52.3459 4.91528
rradius 37.9155
rwrist -41.0462
rhand -24.9782 -46.271
rfingers 7.12502
rthumb 1.5326 -76.2453
lclavicle 3.36754e-014 -2.3997e-014
lhumerus -0.0743281 24.5815 0.633316
lradius 48.4155
lwrist 41.3776
lhand -33.5465 -19.3121
lfingers 7.12502
lthumb -6.74176 10.5606
rfemur -51.3284 -18.3889 11.6908
rtibia 66.5054
rfoot -8.91084 -7.82006
rtoes 3.40577
lfemur -8.47318 7.80135 -32.9009
ltibia 19.2357
lfoot -16.6634 17.8953
ltoes 28.6644
330
root 29.0606 17.3047 -3.65975 2.99588 -8.15588 -369.076
lowerback 23.54 4.35501 -1.44018
upperback 9.43346 5.37473 3.02296
thorax -3.14067 2.52672 2.68953
lowerneck -9.95548 17.6363 19.9377
upperneck 16.3044 24.4136 -17.0234
head 11.6078 11.2367 -5.13233
rclavicle 3.75703e-014 9.93923e-015
rhumerus -35.3091 -52.0927 3.20064
rradius 38.1529
rwrist -40.1214
rhand -24.1516 -45.8317
rfingers 7.12502
rthumb 2.3309 -75.7987
lclavicle 3.75703e-014 9.93923e-015
lhumerus 1.56041 21.1107 1.49685
lradius 48.1691
lwrist 40.86
lhand -31.1969 -20.251
lfingers 7.12502
lthumb -4.47325 9.6818
rfemur -51.9148 -18.1887 14.5155
rtibia 64.8028
rfoot -6.95973 -5.50908
rtoes -2.85818
lfemur -6.52667 8.60792 -33.6215
ltibia 16.1037
lfoot -13.091 16.5191
ltoes 27.1775
